<svg xmlns="http://www.w3.org/2000/svg" xmlns:xlink="http://www.w3.org/1999/xlink" width="1351.836" height="901.778" viewBox="0 0 1351.836 901.778"><defs><clipPath id="a"><circle cx="227.649" cy="227.649" r="227.649" transform="matrix(1, -0.017, 0.017, 1, 0, 7.946)" fill="#fff"/></clipPath><clipPath id="c"><rect width="1351.836" height="901.778"/></clipPath></defs><g id="b" clip-path="url(#c)"><g transform="translate(491.013)"><path d="M4.79,313.432c0-62.957,15.959-175.681,77.656-246.225,25.3-28.926,102.829-88.564,178.023-49.61,120.571,62.456,86.6,169.333,35.221,225.658-29.728,32.6-48.4,74.523-17.486,121.133s73.877,131.234-17,183.106c-73.585,42-146.191,10.128-171.5-18.8C28.008,458.152,4.79,376.249,4.79,313.432Z" transform="translate(-4.79 -4.79)" fill="#fff" fill-rule="evenodd"/><g transform="translate(0.009 0.001)"><path d="M2236.017,1017.21c-4.045,17.05-13.727,32.2-28.908,45.245a287.239,287.239,0,0,1-37.844-54.232c3.26-1.648,6.5-3.355,9.76-5.16,24.077-13.322,41.654-28.136,52.357-44.166C2238.668,980.382,2240.18,999.708,2236.017,1017.21Z" transform="translate(-1925.981 -537.268)" fill="#224559"/><path d="M2233.194,1041.558a149.092,149.092,0,0,1-17.008,11.046,154.909,154.909,0,0,1-41.889,16.187,514.5,514.5,0,0,1-38.433-63.316,268.274,268.274,0,0,0,58.719-19.739A303.188,303.188,0,0,0,2233.194,1041.558Z" transform="translate(-1958.173 -511.446)" fill="#1e5363"/><path d="M2199.83,1059.992a150.793,150.793,0,0,1-61.213-2.59,676.931,676.931,0,0,1-38-57.429,250.979,250.979,0,0,0,61.214-3.375A524.139,524.139,0,0,0,2199.83,1059.992Z" transform="translate(-1992.151 -500.998)" fill="#186474"/><path d="M2149.9,1056.455c-20.66-7.162-37.412-18.208-47.683-29.726a368.415,368.415,0,0,1-26.159-33,198.105,198.105,0,0,0,38.631,8.123C2125.131,1019.96,2136.9,1038.227,2149.9,1056.455Z" transform="translate(-2015.822 -503.759)" fill="#196f7c"/><path d="M2133.882,1043.892a175.251,175.251,0,0,1-41.241-10.674,333.851,333.851,0,0,1-41.5-92,223.84,223.84,0,0,0,42.89,11.713A495.072,495.072,0,0,0,2133.882,1043.892Z" transform="translate(-2039.833 -554.277)" fill="#177a87"/><path d="M2180.567,1036.132a238.807,238.807,0,0,1-62.353,2.453A493.407,493.407,0,0,1,2077.4,947.9a331.025,331.025,0,0,0,71.052,2.531A476.662,476.662,0,0,0,2180.567,1036.132Z" transform="translate(-2014.521 -547.851)" fill="#1c6979"/><path d="M2208.562,1020.468a260.54,260.54,0,0,1-58.759,19.483,470.111,470.111,0,0,1-32.168-84.86,327.834,327.834,0,0,0,64.592-12.714A301.491,301.491,0,0,0,2208.562,1020.468Z" transform="translate(-1975.745 -553.161)" fill="#205b6d"/><path d="M2242.19,979.959c-9.485,16.815-27.2,32.512-52.71,46.619q-4.772,2.649-9.543,5.042a295.1,295.1,0,0,1-25.472-77.247c2.828-.941,5.636-1.923,8.444-2.943,23.312-8.554,38.865-14.539,50.177-24.114.432.687.883,1.354,1.335,2.041A276.054,276.054,0,0,1,2242.19,979.959Z" transform="translate(-1940.246 -567.65)" fill="#1f4c61"/><path d="M2212.157,944.05c-10.31,9.2-24.863,14.814-48.763,23.565-2.357.863-4.732,1.707-7.109,2.512a406.549,406.549,0,0,1-5.126-67.3c15.75,1.962,28.751,3.336,38.865,4.415,4.085.432,7.678.8,10.781,1.177A89.088,89.088,0,0,0,2212.157,944.05Z" transform="translate(-1943.441 -591.211)" fill="#1f5265"/><path d="M2187.32,978.391a319.021,319.021,0,0,1-65.161,12.852,363.9,363.9,0,0,1-11.273-91.021c0-1.118.04-2.237.06-3.375,27.513,4.748,51.3,8.182,71.15,10.752A401.267,401.267,0,0,0,2187.32,978.391Z" transform="translate(-1982.252 -596.965)" fill="#1e6172"/><path d="M2154.331,1000.529a322.42,322.42,0,0,1-71.7-3.12c-8.8-29.274-13.334-57.292-13.334-83.31q-.031-13.156,1.041-26.253c24.116,6.278,48.489,11.714,72.9,16.226v.02q-.088,2.384-.118,4.709A369.375,369.375,0,0,0,2154.331,1000.529Z" transform="translate(-2022.339 -605.623)" fill="#1b7281"/><path d="M2097.054,1002.344a195.988,195.988,0,0,1-42.871-12.91,295.966,295.966,0,0,1-8.8-69.34c0-12.5.628-25.625,1.826-38.967q19.059,5.945,38.453,11.144c-.786,9.418-1.2,18.836-1.178,28.293A296.754,296.754,0,0,0,2097.054,1002.344Z" transform="translate(-2045.384 -612.088)" fill="#197f8d"/><path d="M2121.479,822.1a368.9,368.9,0,0,0-36.332,123.238q-19.353-5.239-38.433-11.2a492.539,492.539,0,0,1,13.393-73.6,402.786,402.786,0,0,1,13.866-42.812A324.024,324.024,0,0,1,2121.479,822.1Z" transform="translate(-2044.102 -673.083)" fill="#1c7c8a"/><path d="M2178.541,843.732c-20.856,43.362-32.895,84.389-35.684,117.076-24.332-4.552-48.625-9.987-72.663-16.285A361.382,361.382,0,0,1,2106.879,820.7,302.52,302.52,0,0,1,2178.541,843.732Z" transform="translate(-2021.47 -670.226)" fill="#1b6e7c"/><path d="M2203.976,869.553c-12.8,27.842-20.837,55.841-21.819,83.722-.058,2.2-.137,4.434-.177,6.71-19.815-2.57-43.48-6-70.837-10.733,2.573-31.962,14.336-72.322,34.918-115.075A359.435,359.435,0,0,1,2203.976,869.553Z" transform="translate(-1982 -657.257)" fill="#1f5e6f"/><path d="M2212.339,904.005a91.29,91.29,0,0,0-11.882,42.675v.02c-2.848-.314-6.067-.648-9.662-1.04-10.27-1.079-23.507-2.492-39.591-4.493.039-2.453.118-4.925.2-7.436.923-26.174,8.365-52.6,20.286-78.954C2190.6,870.4,2204.052,886.72,2212.339,904.005Z" transform="translate(-1943.388 -637.439)" fill="#214e63"/><path d="M2245.406,883.638a190.954,190.954,0,0,1-21.19,27.567,169.926,169.926,0,0,0-18.893,24.133c-9.093-17.05-23-33.159-41.948-48.522a484.685,484.685,0,0,1,44.815-72.95C2228.928,838.785,2240.633,861,2245.406,883.638Z" transform="translate(-1931.657 -676.797)" fill="#204b5e"/><path d="M2226.8,904.964c-6.069-21.622-18.225-43.028-38.178-66.651,14.2-19.13,29.577-38.025,45.307-56.606a105.022,105.022,0,0,1,11.449,32.472C2251.056,846.1,2241.708,878.221,2226.8,904.964Z" transform="translate(-1907.319 -707.737)" fill="#253d55"/><path d="M2256.388,799.646c-16.045,18.914-31.755,38.162-46.309,57.665a496.965,496.965,0,0,0-36.842-37.044c-3.987-3.669-8.111-7.2-12.333-10.556a544.276,544.276,0,0,1,48.8-54.074Q2240.313,774.826,2256.388,799.646Z" transform="translate(-1934.038 -732.819)" fill="#1f5766"/><path d="M2234.455,834.212a503.929,503.929,0,0,0-45.876,74.108,371.232,371.232,0,0,0-57.895-35.18,544.836,544.836,0,0,1,54.517-86.782q6.1,4.856,11.861,10.124A494.859,494.859,0,0,1,2234.455,834.212Z" transform="translate(-1963.166 -703.264)" fill="#205366"/><path d="M2217.483,799a550.967,550.967,0,0,0-55.3,88.136,309.663,309.663,0,0,0-71.406-23.25,414.968,414.968,0,0,1,69.756-95.631A230.226,230.226,0,0,1,2217.483,799Z" transform="translate(-2001.635 -720.677)" fill="#206376"/><path d="M2233.165,762.57a551.857,551.857,0,0,0-48.076,53.486,236.065,236.065,0,0,0-55.714-30.648,441.533,441.533,0,0,1,48.232-41.321,113.487,113.487,0,0,1,44.226,12.322C2225.742,758.41,2229.531,760.451,2233.165,762.57Z" transform="translate(-1964.429 -743.93)" fill="#185b6b"/><path d="M2187.377,744.007a450.505,450.505,0,0,0-43.578,38.476,270.1,270.1,0,0,0-37.8-10.2,201.182,201.182,0,0,1,30.813-16.325A145.642,145.642,0,0,1,2187.377,744.007Z" transform="translate(-1986.964 -744.007)" fill="#1c6573"/><path d="M2179.948,771.761a422.18,422.18,0,0,0-69.7,97,334.172,334.172,0,0,0-48.056-4.827c12.314-29.53,27.671-54.664,45.9-75.128a191.759,191.759,0,0,1,30.852-27.194A267.465,267.465,0,0,1,2179.948,771.761Z" transform="translate(-2029.182 -727.065)" fill="#1a737f"/></g></g><g transform="translate(-239.957 -208)"><path d="M196.89,641.105q-18.637,0-18.637-30.722V497.064H-22.221a23.5,23.5,0,0,1-17.63-7.3q-7.052-7.3-7.052-19.39a38.008,38.008,0,0,1,.5-7.051L25.631-49.388q3.022-18.635,6.8-26.441t12.341-7.806h41.3a14.521,14.521,0,0,1,13.1,7.3q4.533,7.3,4.533,18.383a55.419,55.419,0,0,1-.5,8.562L53.838,394.321q-.5,3.525,2.015,9.066t7.052,5.54H178.253V-52.913q0-30.722,18.637-30.722h48.859q18.637,0,18.637,30.722v461.84h65.481q22.163,0,22.163,28.2V468.86q0,28.2-22.163,28.2H264.386V610.383q0,30.722-18.637,30.722Zm951.11,0q-18.637,0-18.637-30.722V497.064H928.889a23.5,23.5,0,0,1-17.63-7.3q-7.052-7.3-7.052-19.39a38,38,0,0,1,.5-7.051l72.03-512.707q3.022-18.635,6.8-26.441t12.341-7.806h41.3a14.521,14.521,0,0,1,13.1,7.3q4.534,7.3,4.533,18.383a55.405,55.405,0,0,1-.5,8.562l-49.363,443.708q-.5,3.525,2.015,9.066t7.052,5.54h115.348V-52.913q0-30.722,18.637-30.722h48.859q18.637,0,18.637,30.722v461.84h65.481q22.163,0,22.163,28.2V468.86q0,28.2-22.163,28.2H1215.5V610.383q0,30.722-18.637,30.722Z" transform="translate(286.859 293.266)" fill="#283c5d"/></g><g transform="translate(-45.43 543.344) rotate(-13)"><g transform="translate(255.322 -115.393)"><g transform="translate(0 0)"><g transform="matrix(1, -0.017, 0.017, 1, 231.552, 8.597)" fill="#fff" stroke="#283c5e" stroke-width="18"><circle cx="227.321" cy="227.321" r="227.321" stroke="none"/><circle cx="227.321" cy="227.321" r="236.321" fill="none"/></g><g transform="translate(0 520.12) rotate(-34)"><rect width="248.171" height="39.392" rx="19.696" transform="translate(0 0)" fill="#283c5e"/><rect width="90.678" height="19.09" transform="translate(218.082 10.12)" fill="#283c5e"/></g></g><g transform="translate(231.212 0.955)" clip-path="url(#a)"><g transform="translate(-141.132 -819.589)"><path d="M4.79,694.082c0-140.6,35.641-392.35,173.43-549.9C234.732,79.586,407.87-53.6,575.8,33.393,845.073,172.877,769.2,411.566,654.46,537.357c-66.393,72.8-108.087,166.433-39.052,270.527S780.4,1100.97,577.437,1216.816c-164.338,93.8-326.49,22.618-383-41.982C56.643,1017.287,4.79,834.372,4.79,694.082Z" transform="translate(-4.79 -4.79)" fill="#fff" fill-rule="evenodd"/><g transform="translate(0.02 0.003)"><path d="M2318.342,1089.127c-9.034,38.079-30.657,71.907-64.561,101.047a641.5,641.5,0,0,1-84.517-121.116c7.28-3.681,14.517-7.493,21.8-11.525,53.771-29.753,93.027-62.837,116.929-98.637C2324.264,1006.879,2327.639,1050.041,2318.342,1089.127Z" transform="translate(-1625.936 -17.269)" fill="#224559"/><path d="M2353.23,1110.4a332.92,332.92,0,0,1-37.983,24.67,345.972,345.972,0,0,1-93.551,36.151,1149.035,1149.035,0,0,1-85.832-141.4A599.153,599.153,0,0,0,2267,985.737,677.091,677.091,0,0,0,2353.23,1110.4Z" transform="translate(-1739.026 73.501)" fill="#1e5363"/><path d="M2322.191,1138.177a336.768,336.768,0,0,1-136.708-5.785,1511.6,1511.6,0,0,1-84.869-128.257,560.5,560.5,0,0,0,136.709-7.538A1170.568,1170.568,0,0,0,2322.191,1138.177Z" transform="translate(-1858.381 110.229)" fill="#186474"/><path d="M2240.967,1133.818c-46.141-15.995-83.552-40.664-106.491-66.386a822.73,822.73,0,0,1-58.422-73.7,442.446,442.446,0,0,0,86.274,18.141C2185.658,1052.314,2211.931,1093.109,2240.967,1133.818Z" transform="translate(-1941.538 100.523)" fill="#196f7c"/><path d="M2235.923,1170.522a391.383,391.383,0,0,1-92.1-23.837,745.582,745.582,0,0,1-92.674-205.467,499.9,499.9,0,0,0,95.786,26.159A1105.715,1105.715,0,0,0,2235.923,1170.522Z" transform="translate(-2025.881 -77.061)" fill="#177a87"/><path d="M2307.8,1144.952a533.306,533.306,0,0,1-139.252,5.477A1101.907,1101.907,0,0,1,2077.4,947.9a739.284,739.284,0,0,0,158.68,5.653A1064.531,1064.531,0,0,0,2307.8,1144.952Z" transform="translate(-1936.967 -54.47)" fill="#1c6979"/><path d="M2320.7,1116.777a581.865,581.865,0,0,1-131.228,43.512,1049.859,1049.859,0,0,1-71.841-189.517,732.133,732.133,0,0,0,144.253-28.395A673.356,673.356,0,0,0,2320.7,1116.777Z" transform="translate(-1800.751 -73.138)" fill="#205b6d"/><path d="M2350.381,1044.883c-21.183,37.553-60.743,72.609-117.717,104.115q-10.659,5.915-21.314,11.261a659.046,659.046,0,0,1-56.886-172.516c6.316-2.1,12.586-4.294,18.859-6.573,52.062-19.1,86.8-32.47,112.061-53.854.966,1.534,1.972,3.024,2.981,4.557A616.45,616.45,0,0,1,2350.381,1044.883Z" transform="translate(-1676.048 -124.07)" fill="#1f4c61"/><path d="M2287.4,994.89c-23.026,20.552-55.527,33.083-108.9,52.627-5.264,1.928-10.569,3.812-15.877,5.609a907.942,907.942,0,0,1-11.448-150.3c35.175,4.382,64.209,7.449,86.8,9.859,9.122.964,17.148,1.8,24.076,2.629A198.954,198.954,0,0,0,2287.4,994.89Z" transform="translate(-1687.272 -206.892)" fill="#1f5265"/><path d="M2281.589,1078.959a712.483,712.483,0,0,1-145.525,28.7,812.7,812.7,0,0,1-25.175-203.277c0-2.5.088-5,.132-7.537,61.445,10.6,114.559,18.273,158.9,24.013A896.246,896.246,0,0,0,2281.589,1078.959Z" transform="translate(-1823.61 -227.117)" fill="#1e6172"/><path d="M2259.207,1139.5a720.069,720.069,0,0,1-160.131-6.968c-19.649-65.378-29.78-127.952-29.78-186.056q-.068-29.38,2.324-58.63c53.859,14.022,108.29,26.16,162.807,36.238v.044q-.2,5.324-.263,10.516A824.913,824.913,0,0,0,2259.207,1139.5Z" transform="translate(-1964.429 -257.554)" fill="#1b7281"/><path d="M2160.778,1151.841a437.7,437.7,0,0,1-95.745-28.833,660.94,660.94,0,0,1-19.649-154.857c0-27.913,1.4-57.228,4.079-87.025q42.564,13.277,85.877,24.889c-1.756,21.033-2.677,42.067-2.632,63.187A662.7,662.7,0,0,0,2160.778,1151.841Z" transform="translate(-2045.384 -280.28)" fill="#197f8d"/><path d="M2213.686,827.5a823.873,823.873,0,0,0-81.14,275.227q-43.221-11.7-85.832-25.021a1099.909,1099.909,0,0,1,29.911-164.365,899.467,899.467,0,0,1,30.967-95.613A723.635,723.635,0,0,1,2213.686,827.5Z" transform="translate(-2040.881 -494.693)" fill="#1c7c8a"/><path d="M2312.165,872.141c-46.578,96.84-73.464,188.466-79.693,261.468-54.34-10.165-108.594-22.3-162.278-36.369A807.092,807.092,0,0,1,2152.123,820.7,675.621,675.621,0,0,1,2312.165,872.141Z" transform="translate(-1961.379 -484.649)" fill="#1b6e7c"/><path d="M2318.467,913.183c-28.6,62.179-46.535,124.71-48.729,186.976-.13,4.907-.306,9.9-.394,14.986-44.254-5.74-97.1-13.409-158.2-23.969,5.746-71.38,32.017-161.517,77.982-257A802.741,802.741,0,0,1,2318.467,913.183Z" transform="translate(-1822.725 -439.061)" fill="#1f5e6f"/><path d="M2287.738,964.719a203.866,203.866,0,0,0-26.536,95.306v.044c-6.36-.7-13.551-1.446-21.579-2.323-22.936-2.41-52.5-5.565-88.418-10.034.086-5.478.262-11,.438-16.608,2.062-58.455,18.682-117.479,45.306-176.328C2239.185,889.657,2269.229,926.114,2287.738,964.719Z" transform="translate(-1687.085 -369.393)" fill="#214e63"/><path d="M2346.574,969.688a426.414,426.414,0,0,1-47.324,61.566,379.5,379.5,0,0,0-42.193,53.9c-20.307-38.079-51.36-74.054-93.683-108.364a1082.439,1082.439,0,0,1,100.085-162.92C2309.776,869.517,2335.917,919.12,2346.574,969.688Z" transform="translate(-1645.879 -507.747)" fill="#204b5e"/><path d="M2273.887,1056.978c-13.553-48.288-40.7-96.1-85.263-148.853,31.712-42.724,66.054-84.922,101.185-126.418a234.541,234.541,0,0,1,25.569,72.52C2328.053,925.521,2307.177,997.253,2273.887,1056.978Z" transform="translate(-1560.383 -616.509)" fill="#253d55"/><path d="M2374.147,853.923c-35.833,42.241-70.919,85.229-103.421,128.784a1109.836,1109.836,0,0,0-82.279-82.73c-8.9-8.194-18.114-16.082-27.543-23.575a1215.625,1215.625,0,0,1,108.988-120.765Q2338.247,798.492,2374.147,853.923Z" transform="translate(-1654.242 -704.676)" fill="#1f5766"/><path d="M2362.436,893.231a1125.434,1125.434,0,0,0-102.455,165.505,829.077,829.077,0,0,0-129.3-78.568,1216.769,1216.769,0,0,1,121.754-193.812q13.618,10.845,26.49,22.61A1105.2,1105.2,0,0,1,2362.436,893.231Z" transform="translate(-1756.565 -600.784)" fill="#205366"/><path d="M2373.754,836.921a1230.495,1230.495,0,0,0-123.507,196.835,691.568,691.568,0,0,0-159.473-51.925,926.731,926.731,0,0,1,155.787-213.574A514.163,514.163,0,0,1,2373.754,836.921Z" transform="translate(-1891.698 -661.996)" fill="#206376"/><path d="M2361.171,785.365A1232.437,1232.437,0,0,0,2253.8,904.816a527.2,527.2,0,0,0-124.427-68.445,986.083,986.083,0,0,1,107.718-92.283,253.449,253.449,0,0,1,98.771,27.519C2344.592,776.075,2353.056,780.632,2361.171,785.365Z" transform="translate(-1761 -743.737)" fill="#185b6b"/><path d="M2287.747,744.007a1006.137,1006.137,0,0,0-97.324,85.929,603.2,603.2,0,0,0-84.429-22.786,449.277,449.277,0,0,1,68.815-36.458A325.265,325.265,0,0,1,2287.747,744.007Z" transform="translate(-1840.164 -744.007)" fill="#1c6573"/><path d="M2325.174,784.272a942.866,942.866,0,0,0-155.657,216.642,746.307,746.307,0,0,0-107.323-10.779c27.5-65.949,61.8-122.08,102.5-167.784a428.278,428.278,0,0,1,68.9-60.733A597.314,597.314,0,0,1,2325.174,784.272Z" transform="translate(-1988.467 -684.452)" fill="#1a737f"/></g></g></g></g></g></g></svg>