<?xml version="1.0" standalone="no"?>
<!DOCTYPE svg PUBLIC "-//W3C//DTD SVG 20010904//EN"
 "http://www.w3.org/TR/2001/REC-SVG-20010904/DTD/svg10.dtd">
<svg version="1.0" xmlns="http://www.w3.org/2000/svg"
 width="688.000000pt" height="254.000000pt" viewBox="0 0 688.000000 254.000000"
 preserveAspectRatio="xMidYMid meet">
<metadata>
Created by potrace 1.13, written by Peter Selinger 2001-2015
</metadata>
<g transform="translate(0.000000,254.000000) scale(0.100000,-0.100000)"
fill="#000000" stroke="none">
<path d="M0 1270 l0 -1270 3320 0 c3078 0 3320 1 3320 17 0 15 1 15 18 0 10
-10 32 -17 49 -17 26 0 30 3 26 19 -3 12 5 25 25 40 l30 21 -5 -40 -6 -40 52
0 c51 0 51 0 51 31 0 18 -7 37 -17 44 -17 13 -11 51 7 40 6 -4 10 408 10 1210
l0 1215 -1564 0 c-1242 0 -1565 -3 -1569 -12 -4 -10 -7 -10 -18 0 -10 9 -398
12 -1871 12 l-1858 0 0 -1270z m3170 1240 c0 -5 -4 -10 -10 -10 -5 0 -10 5
-10 10 0 6 5 10 10 10 6 0 10 -4 10 -10z m330 -31 c0 -11 -4 -17 -10 -14 -5 3
-10 13 -10 21 0 8 5 14 10 14 6 0 10 -9 10 -21z m1145 -69 c3 -6 -1 -7 -9 -4
-18 7 -21 14 -7 14 6 0 13 -4 16 -10z m-103 -42 c-9 -9 -15 -9 -24 0 -9 9 -7
12 12 12 19 0 21 -3 12 -12z m-1302 -76 c0 -4 -14 -13 -30 -21 -24 -10 -34
-10 -45 -1 -8 7 -12 16 -9 21 6 11 84 12 84 1z m-1710 -457 l0 -375 375 0 375
0 0 375 0 375 240 0 240 0 0 -975 0 -975 -240 0 -240 0 0 375 0 375 -375 0
-375 0 0 -375 0 -375 -240 0 -240 0 0 975 0 975 240 0 240 0 0 -375z m1970
123 c78 -139 175 -311 215 -381 40 -71 80 -138 91 -150 10 -12 19 -27 20 -33
1 -6 8 -24 17 -39 l14 -28 61 109 c34 60 146 258 250 439 l188 330 247 3 247
2 0 -520 0 -520 28 -1 27 -1 -25 -7 -25 -7 -3 -447 -2 -447 -240 0 -240 0 -2
575 -3 575 -31 -58 c-17 -31 -66 -120 -109 -197 -44 -77 -116 -205 -160 -285
l-81 -145 -132 -1 c-84 0 -135 3 -141 10 -11 13 -192 333 -303 536 -44 80 -81
146 -82 147 -1 1 0 -259 3 -578 l3 -579 -241 0 -241 0 0 975 0 975 253 0 253
0 144 -252z m289 203 c-16 -5 -42 25 -34 39 6 9 13 6 26 -11 11 -14 14 -25 8
-28z m2058 38 c398 -54 630 -323 610 -709 -14 -275 -153 -474 -405 -576 -125
-50 -165 -57 -404 -61 l-228 -5 0 -294 0 -294 -240 0 -240 0 0 975 0 975 414
0 c239 0 448 -5 493 -11z m-1692 -29 c-28 -12 -37 -12 -30 0 3 6 16 10 28 9
21 0 21 -1 2 -9z m-3561 -22 c59 -18 112 -75 124 -134 23 -106 -18 -190 -110
-229 -128 -53 -265 26 -276 159 -6 69 10 114 52 155 57 55 131 72 210 49z
m2922 -34 c-9 -25 -24 -7 -18 22 4 23 6 24 14 10 5 -10 7 -24 4 -32z m504 12
c0 -3 -4 -8 -10 -11 -5 -3 -10 -1 -10 4 0 6 5 11 10 11 6 0 10 -2 10 -4z m60
-56 c0 -5 -4 -10 -10 -10 -5 0 -10 5 -10 10 0 6 5 10 10 10 6 0 10 -4 10 -10z
m-3380 -678 c0 -109 -3 -409 -7 -665 l-6 -467 -164 0 -163 0 0 665 0 665 170
0 170 0 0 -198z m3420 -587 c0 -8 -7 -15 -15 -15 -16 0 -20 12 -8 23 11 12 23
8 23 -8z m755 -34 c3 -5 1 -12 -5 -16 -5 -3 -10 1 -10 9 0 18 6 21 15 7z
m-765 -21 c0 -5 -9 -10 -20 -10 -11 0 -20 5 -20 10 0 6 9 10 20 10 11 0 20 -4
20 -10z m1830 -41 c0 -10 -12 -11 -34 -3 -9 3 -14 10 -11 14 6 10 45 1 45 -11z
m-10 -89 c0 -5 -5 -10 -11 -10 -5 0 -7 5 -4 10 3 6 8 10 11 10 2 0 4 -4 4 -10z
m-2390 -90 c0 -5 -2 -10 -4 -10 -3 0 -8 5 -11 10 -3 6 -1 10 4 10 6 0 11 -4
11 -10z m460 -65 c0 -8 -4 -15 -10 -15 -5 0 -7 7 -4 15 4 8 8 15 10 15 2 0 4
-7 4 -15z m2420 5 c0 -5 -2 -10 -4 -10 -3 0 -8 5 -11 10 -3 6 -1 10 4 10 6 0
11 -4 11 -10z m-2730 -36 c0 -16 -16 -19 -25 -4 -8 13 4 32 16 25 5 -4 9 -13
9 -21z m2645 17 c7 -12 -12 -24 -25 -16 -11 7 -4 25 10 25 5 0 11 -4 15 -9z
m-385 -38 c0 -13 -3 -13 -15 -3 -8 7 -12 16 -9 21 8 13 24 1 24 -18z m140 -8
c0 -9 -9 -15 -25 -15 -26 0 -34 15 -12 23 23 10 37 7 37 -8z m-2320 -60 c0 -9
-6 -12 -15 -9 -8 4 -12 10 -9 15 8 14 24 10 24 -6z m415 5 c3 -5 1 -10 -4 -10
-6 0 -11 5 -11 10 0 6 2 10 4 10 3 0 8 -4 11 -10z m2075 0 c0 -5 -7 -10 -15
-10 -8 0 -15 5 -15 10 0 6 7 10 15 10 8 0 15 -4 15 -10z m480 -44 c0 -16 -18
-31 -27 -22 -8 8 5 36 17 36 5 0 10 -6 10 -14z m-760 -66 c0 -11 -6 -20 -14
-20 -18 0 -29 16 -21 30 11 18 35 11 35 -10z m-100 -15 c0 -16 -7 -25 -26 -29
-32 -8 -37 -5 -29 25 8 34 55 37 55 4z m880 5 c7 0 40 -55 40 -67 0 -8 -30 -2
-66 13 -32 13 -35 18 -21 25 10 6 14 16 10 26 -5 13 -2 15 11 10 10 -4 21 -7
26 -7z m-935 -120 c-5 -8 -11 -8 -17 -2 -6 6 -7 16 -3 22 5 8 11 8 17 2 6 -6
7 -16 3 -22z m555 11 c15 -28 13 -33 -10 -21 -11 6 -20 17 -20 25 0 21 17 18
30 -4z m340 9 c0 -5 -4 -10 -10 -10 -5 0 -10 5 -10 10 0 6 5 10 10 10 6 0 10
-4 10 -10z m120 -16 c0 -14 -3 -14 -15 -4 -8 7 -15 14 -15 16 0 2 7 4 15 4 8
0 15 -7 15 -16z m-240 -34 c0 -5 -4 -10 -10 -10 -5 0 -10 5 -10 10 0 6 5 10
10 10 6 0 10 -4 10 -10z"/>
<path d="M5420 1521 l0 -261 150 0 c214 0 294 21 358 94 42 48 55 98 51 188
-6 103 -40 160 -124 203 -58 30 -60 30 -247 33 l-188 4 0 -261z m180 149 c0
-5 -4 -10 -10 -10 -5 0 -10 5 -10 10 0 6 5 10 10 10 6 0 10 -4 10 -10z"/>
</g>
</svg>
