<?xml version="1.0" standalone="no"?>
<!DOCTYPE svg PUBLIC "-//W3C//DTD SVG 20010904//EN"
 "http://www.w3.org/TR/2001/REC-SVG-20010904/DTD/svg10.dtd">
<svg version="1.0" xmlns="http://www.w3.org/2000/svg"
 width="410.000000pt" height="40.000000pt" viewBox="0 0 410.000000 40.000000"
 preserveAspectRatio="xMidYMid meet">
<metadata>
Created by potrace 1.13, written by Peter Selinger 2001-2015
</metadata>
<g transform="translate(0.000000,40.000000) scale(0.100000,-0.100000)"
fill="#000000" stroke="none">
<path d="M0 200 l0 -200 2050 0 2050 0 0 200 0 200 -2050 0 -2050 0 0 -200z
m147 -5 l32 -40 1 73 c0 41 4 72 10 72 6 0 10 -38 10 -95 0 -52 -4 -95 -8 -95
-5 0 -33 30 -63 68 l-54 67 -3 -67 c-5 -105 -22 -81 -22 30 l1 97 32 -35 c17
-19 46 -53 64 -75z m103 10 c0 -57 -4 -95 -10 -95 -6 0 -10 38 -10 95 0 57 4
95 10 95 6 0 10 -38 10 -95z m60 49 l0 -45 53 3 52 3 3 43 c6 80 22 42 22 -53
0 -57 -4 -95 -10 -95 -5 0 -10 18 -10 40 l0 40 -55 0 -55 0 0 -40 c0 -22 -4
-40 -10 -40 -6 0 -10 38 -10 95 0 57 4 95 10 95 6 0 10 -20 10 -46z m250 1 l0
-45 55 0 55 0 0 45 c0 25 5 45 10 45 6 0 10 -38 10 -95 0 -57 -4 -95 -10 -95
-5 0 -10 18 -10 40 l0 40 -55 0 -55 0 0 -40 c0 -22 -4 -40 -10 -40 -6 0 -10
38 -10 95 0 57 4 95 10 95 6 0 10 -20 10 -45z m990 -5 l33 -51 34 51 c18 27
38 50 43 50 6 0 10 -40 10 -95 0 -57 -4 -95 -10 -95 -6 0 -10 31 -10 73 l0 72
-31 -48 c-35 -52 -43 -52 -75 8 -10 19 -22 35 -26 35 -5 0 -8 -31 -8 -70 0
-40 -4 -70 -10 -70 -6 0 -10 38 -10 95 0 113 11 121 60 45z m178 32 c2 -7 -3
-12 -12 -12 -9 0 -16 7 -16 16 0 17 22 14 28 -4z m432 -17 c0 -32 2 -35 19
-25 48 25 93 -6 93 -65 0 -50 -21 -66 -84 -64 l-48 2 0 94 c0 55 4 93 10 93 6
0 10 -16 10 -35z m160 20 c0 -8 -4 -15 -10 -15 -5 0 -10 7 -10 15 0 8 5 15 10
15 6 0 10 -7 10 -15z m780 -5 c47 -47 10 -110 -65 -110 -43 0 -45 -1 -45 -30
0 -16 -4 -30 -10 -30 -6 0 -10 38 -10 95 l0 95 55 0 c42 0 60 -5 75 -20z m312
5 c0 -5 -5 -11 -11 -13 -6 -2 -11 4 -11 13 0 9 5 15 11 13 6 -2 11 -8 11 -13z
m612 2 c12 -9 17 -23 14 -47 -3 -36 -2 -35 -88 -59 -16 -4 -26 -15 -28 -29 -3
-21 0 -22 57 -22 34 0 61 -4 61 -10 0 -6 -30 -10 -70 -10 l-70 0 0 34 c0 40
28 66 72 66 22 0 58 22 58 35 0 2 -7 11 -16 19 -22 23 -71 20 -86 -4 -15 -23
-28 -26 -28 -6 0 41 83 63 124 33z m-264 -22 c0 -8 9 -15 19 -15 11 0 23 -4
26 -10 4 -6 -5 -10 -20 -10 -25 0 -26 -2 -23 -47 3 -41 6 -48 26 -51 32 -5 27
-22 -7 -22 -33 0 -41 14 -41 75 0 25 -5 46 -12 49 -10 5 -10 7 0 12 6 3 12 12
12 20 0 8 5 14 10 14 6 0 10 -7 10 -15z m-3008 -122 c16 -19 56 -16 68 6 5 11
10 38 10 61 0 25 4 39 10 35 6 -3 10 -34 10 -69 l0 -63 -49 -2 c-60 -2 -81 20
-81 85 0 59 14 65 18 8 2 -27 8 -54 14 -61z m228 97 c8 -1 27 2 41 5 40 10 59
-16 59 -81 0 -69 -18 -71 -22 -3 -6 95 -68 93 -68 -2 0 -27 -4 -49 -10 -49 -5
0 -10 20 -10 44 0 42 -18 76 -40 76 -22 0 -40 -34 -40 -76 0 -24 -4 -44 -10
-44 -10 0 -15 122 -5 132 3 2 24 3 47 1 24 -1 50 -3 58 -3z m220 0 c9 -5 19
-5 27 2 10 8 13 -4 13 -59 l0 -70 -47 -1 c-53 -2 -65 3 -82 35 -30 57 37 126
89 93z m173 -9 c19 -15 25 -121 7 -121 -5 0 -10 22 -10 50 0 57 -23 80 -60 60
-16 -8 -20 -21 -20 -60 0 -28 -4 -50 -10 -50 -6 0 -10 29 -10 68 l0 67 43 0
c24 0 51 -6 60 -14z m347 -51 c0 -40 -4 -70 -10 -70 -11 0 -14 123 -3 133 12
13 13 7 13 -63z m126 56 c24 -18 13 -31 -15 -16 -45 24 -89 -34 -55 -72 14
-15 27 -19 52 -14 23 3 32 1 29 -7 -10 -32 -89 -18 -105 18 -17 38 -15 53 13
80 27 28 52 31 81 11z m122 -5 c3 -10 0 -12 -13 -7 -30 11 -55 -21 -55 -71 0
-23 -4 -43 -10 -43 -9 0 -15 122 -6 131 11 11 80 3 84 -10z m127 -6 c48 -47
19 -115 -49 -115 -64 0 -90 79 -40 119 35 27 59 26 89 -4z m225 -45 c0 -40 -4
-70 -10 -70 -11 0 -14 123 -3 133 12 13 13 7 13 -63z m138 54 c16 -11 22 -25
22 -54 0 -47 -21 -70 -62 -70 -42 0 -68 25 -68 67 0 61 58 92 108 57z m152 6
c8 -1 26 2 40 5 41 10 62 -14 68 -79 3 -37 1 -56 -7 -56 -6 0 -11 18 -11 44 0
27 -6 51 -16 60 -18 19 -20 19 -45 6 -15 -8 -19 -22 -19 -60 0 -28 -4 -50 -10
-50 -5 0 -10 22 -10 49 0 95 -62 97 -68 2 -4 -76 -22 -62 -22 17 l0 69 43 -4
c23 -1 49 -3 57 -3z m238 -6 c12 -8 22 -26 22 -40 0 -23 -3 -24 -55 -24 -56 0
-65 -6 -43 -28 15 -15 64 -16 73 -2 4 6 11 7 17 4 17 -11 -21 -34 -56 -34 -39
0 -66 26 -66 64 0 36 7 48 35 64 28 16 47 15 73 -4z m370 -3 c3 -8 -1 -12 -9
-9 -31 11 -49 -11 -49 -62 0 -28 -4 -50 -10 -50 -6 0 -10 29 -10 68 l0 67 37
0 c22 0 38 -5 41 -14z m126 -2 c52 -41 25 -119 -41 -119 -67 0 -96 68 -48 115
30 30 54 31 89 4z m54 -171 c-17 -10 -40 -6 -45 8 -2 7 4 11 14 10 16 -1 18 9
21 74 4 112 17 119 20 11 2 -69 -1 -97 -10 -103z m160 165 c6 -9 12 -25 12
-35 0 -15 -9 -18 -55 -18 -30 0 -55 -4 -55 -8 0 -26 61 -44 75 -22 4 6 11 8
16 4 18 -11 -12 -34 -45 -34 -42 0 -64 18 -72 57 -5 26 -1 37 21 58 21 22 32
26 58 21 18 -3 38 -14 45 -23z m133 16 c11 -5 17 -14 14 -20 -4 -5 -14 -5 -26
2 -45 24 -93 -48 -54 -81 9 -8 28 -10 50 -6 35 7 49 -6 19 -18 -54 -21 -104 8
-104 58 0 36 7 48 35 64 25 14 41 15 66 1z"/>
<path d="M2177 212 c-32 -35 -15 -82 29 -82 21 0 54 33 54 52 0 13 -39 48 -53
48 -8 0 -21 -8 -30 -18z"/>
<path d="M2994 266 c-3 -8 -4 -27 -2 -43 3 -24 8 -28 39 -31 57 -5 88 37 53
72 -19 20 -83 21 -90 2z"/>
<path d="M1140 210 c-29 -29 -7 -80 34 -80 47 0 63 57 24 84 -29 20 -34 20
-58 -4z"/>
<path d="M2017 212 c-46 -51 19 -115 67 -66 21 21 20 40 -4 64 -25 25 -42 25
-63 2z"/>
<path d="M2386 214 c-19 -18 -21 -55 -4 -72 19 -19 55 -14 72 9 16 23 12 47
-12 67 -21 16 -37 15 -56 -4z"/>
<path d="M2775 210 c-18 -20 -17 -20 28 -20 49 0 60 12 28 30 -27 14 -35 13
-56 -10z"/>
<path d="M3270 210 c-24 -24 -25 -43 -4 -64 18 -19 55 -21 72 -4 18 18 15 53
-6 71 -24 22 -38 21 -62 -3z"/>
<path d="M3474 216 c-26 -20 -14 -28 37 -24 41 3 42 4 25 21 -21 21 -36 22
-62 3z"/>
</g>
</svg>
